<svg width="40" height="42" viewBox="0 0 40 42" fill="none" xmlns="http://www.w3.org/2000/svg">
<path d="M33.7633 28.745C32.2015 28.746 30.6971 29.3336 29.548 30.3914C28.3989 31.4491 27.689 32.8998 27.5589 34.4562H8.89884C8.63161 34.4553 8.3705 34.376 8.14788 34.2282C7.92526 34.0804 7.75091 33.8704 7.64644 33.6245C7.54197 33.3785 7.51198 33.1073 7.56017 32.8444C7.60836 32.5816 7.73262 32.3386 7.91756 32.1457L31.0998 11.4193C31.5133 11.0133 31.7965 10.4934 31.9134 9.92579C32.0302 9.35822 31.9755 8.7687 31.756 8.23238C31.5366 7.69605 31.1625 7.2372 30.6813 6.91432C30.2001 6.59144 29.6336 6.41915 29.0542 6.4194H12.4398C12.3098 4.83994 11.5827 3.3694 10.4067 2.3071C9.2306 1.24481 7.69393 0.670601 6.10943 0.701371C4.52493 0.732141 3.01171 1.36557 1.87778 2.47273C0.743854 3.57988 0.0744567 5.07754 0.00584648 6.66086C-0.0627637 8.24417 0.47457 9.79412 1.50847 10.9952C2.54237 12.1963 3.99513 12.9583 5.57103 13.126C7.14693 13.2937 8.72751 12.8546 9.99105 11.898C11.2546 10.9414 12.1061 9.53928 12.3723 7.977H29.0542C29.3214 7.97786 29.5825 8.05713 29.8051 8.20496C30.0277 8.3528 30.2021 8.56271 30.3066 8.80868C30.411 9.05465 30.441 9.32587 30.3928 9.58873C30.3446 9.85158 30.2204 10.0945 30.0354 10.2874L6.8532 31.0139C6.43972 31.4199 6.1565 31.9398 6.03963 32.5074C5.92276 33.0749 5.97753 33.6644 6.19696 34.2008C6.41639 34.7371 6.79055 35.1959 7.27174 35.5188C7.75293 35.8417 8.31936 36.014 8.89884 36.0138H27.6264C27.8244 37.1853 28.3533 38.2757 29.1506 39.1566C29.948 40.0374 30.9806 40.6719 32.1266 40.9852C33.2727 41.2985 34.4845 41.2776 35.6191 40.9249C36.7536 40.5722 37.7637 39.9025 38.5302 38.9946C39.2967 38.0868 39.7876 36.9787 39.945 35.8011C40.1025 34.6234 39.92 33.4253 39.4189 32.348C38.9179 31.2707 38.1193 30.3591 37.1172 29.7207C36.1151 29.0823 34.9514 28.7438 33.7633 28.745ZM6.24573 11.6114C5.32154 11.6114 4.41811 11.3373 3.64967 10.8239C2.88123 10.3104 2.28231 9.58064 1.92864 8.7268C1.57496 7.87296 1.48243 6.93341 1.66273 6.02698C1.84303 5.12055 2.28807 4.28794 2.94157 3.63443C3.59507 2.98093 4.42768 2.53589 5.33412 2.35559C6.24055 2.17529 7.18009 2.26783 8.03393 2.6215C8.88778 2.97517 9.61757 3.5741 10.131 4.34253C10.6445 5.11097 10.9185 6.01441 10.9185 6.9386C10.9185 8.1779 10.4262 9.36644 9.5499 10.2428C8.67358 11.1191 7.48504 11.6114 6.24573 11.6114ZM33.7633 39.6481C32.8391 39.6481 31.9357 39.3741 31.1672 38.8606C30.3988 38.3472 29.7999 37.6174 29.4462 36.7636C29.0925 35.9097 29 34.9702 29.1803 34.0637C29.3606 33.1573 29.8056 32.3247 30.4591 31.6712C31.1126 31.0177 31.9452 30.5727 32.8517 30.3924C33.7581 30.212 34.6977 30.3046 35.5515 30.6583C36.4053 31.0119 37.1351 31.6109 37.6486 32.3793C38.162 33.1477 38.4361 34.0512 38.4361 34.9754C38.4361 36.2147 37.9438 37.4032 37.0675 38.2795C36.1911 39.1558 35.0026 39.6481 33.7633 39.6481Z" fill="#DC0C1C"/>
<path d="M36.3022 32.7429C36.1562 32.5971 35.9583 32.5151 35.7519 32.5151C35.5455 32.5151 35.3476 32.5971 35.2015 32.7429L33.862 34.0824L32.5173 32.7429C32.3696 32.6053 32.1744 32.5304 31.9726 32.534C31.7709 32.5376 31.5783 32.6193 31.4357 32.762C31.293 32.9047 31.2112 33.0972 31.2077 33.2989C31.2041 33.5007 31.279 33.696 31.4166 33.8436L32.7561 35.1831L31.4166 36.5331C31.3401 36.6044 31.2787 36.6903 31.2361 36.7859C31.1936 36.8814 31.1707 36.9845 31.1688 37.0891C31.167 37.1937 31.1862 37.2975 31.2254 37.3945C31.2646 37.4915 31.3229 37.5796 31.3968 37.6535C31.4708 37.7275 31.5589 37.7858 31.6558 37.8249C31.7528 37.8641 31.8567 37.8834 31.9612 37.8815C32.0658 37.8797 32.1689 37.8568 32.2645 37.8142C32.36 37.7716 32.446 37.7103 32.5173 37.6338L33.8568 36.2942L35.1963 37.6338C35.3423 37.7804 35.5406 37.8631 35.7475 37.8636C35.9544 37.864 36.153 37.7823 36.2996 37.6364C36.4463 37.4904 36.529 37.2921 36.5294 37.0852C36.5299 36.8783 36.4482 36.6797 36.3022 36.5331L34.9627 35.1935L36.3022 33.854C36.376 33.7815 36.4346 33.695 36.4746 33.5997C36.5146 33.5043 36.5352 33.4019 36.5352 33.2984C36.5352 33.195 36.5146 33.0926 36.4746 32.9972C36.4346 32.9018 36.376 32.8154 36.3022 32.7429Z" fill="#DC0C1C"/>
<path d="M6.2456 8.75598C7.24921 8.75598 8.0628 7.94239 8.0628 6.93878C8.0628 5.93517 7.24921 5.12158 6.2456 5.12158C5.24199 5.12158 4.42841 5.93517 4.42841 6.93878C4.42841 7.94239 5.24199 8.75598 6.2456 8.75598Z" fill="#DC0C1C"/>
</svg>
