<svg width="20" height="9" viewBox="0 0 20 9" fill="none" xmlns="http://www.w3.org/2000/svg">
<path d="M1.06 2.78H1.56V8H1.06V2.78ZM1.31 1.51C1.19667 1.51 1.1 1.47333 1.02 1.4C0.94 1.32 0.9 1.22333 0.9 1.11C0.9 0.996666 0.94 0.9 1.02 0.819999C1.1 0.74 1.19667 0.7 1.31 0.7C1.42333 0.7 1.52 0.74 1.6 0.819999C1.68 0.893333 1.72 0.986666 1.72 1.1C1.72 1.21333 1.68 1.31 1.6 1.39C1.52 1.47 1.42333 1.51 1.31 1.51ZM5.73742 8.04C5.23076 8.04 4.77742 7.92667 4.37742 7.7C3.97742 7.47333 3.66409 7.16 3.43742 6.76C3.21076 6.35333 3.09742 5.89667 3.09742 5.39C3.09742 4.87667 3.21076 4.42 3.43742 4.02C3.66409 3.61333 3.97742 3.3 4.37742 3.08C4.77742 2.85333 5.23076 2.74 5.73742 2.74C6.15742 2.74 6.53742 2.82333 6.87742 2.99C7.22409 3.15 7.50409 3.38667 7.71742 3.7L7.34742 3.97C7.16076 3.71 6.92742 3.51667 6.64742 3.39C6.37409 3.25667 6.07076 3.19 5.73742 3.19C5.33076 3.19 4.96409 3.28333 4.63742 3.47C4.31742 3.65 4.06409 3.90667 3.87742 4.24C3.69742 4.57333 3.60742 4.95667 3.60742 5.39C3.60742 5.82333 3.69742 6.20667 3.87742 6.54C4.06409 6.87333 4.31742 7.13333 4.63742 7.32C4.96409 7.5 5.33076 7.59 5.73742 7.59C6.07076 7.59 6.37409 7.52667 6.64742 7.4C6.92742 7.26667 7.16076 7.07 7.34742 6.81L7.71742 7.08C7.50409 7.39333 7.22409 7.63333 6.87742 7.8C6.53742 7.96 6.15742 8.04 5.73742 8.04ZM11.1664 8.04C10.6731 8.04 10.2264 7.92667 9.82641 7.7C9.43307 7.47333 9.12307 7.16 8.89641 6.76C8.66974 6.35333 8.55641 5.89667 8.55641 5.39C8.55641 4.88333 8.66974 4.43 8.89641 4.03C9.12307 3.62333 9.43307 3.30667 9.82641 3.08C10.2264 2.85333 10.6731 2.74 11.1664 2.74C11.6597 2.74 12.1031 2.85333 12.4964 3.08C12.8964 3.30667 13.2097 3.62333 13.4364 4.03C13.6631 4.43 13.7764 4.88333 13.7764 5.39C13.7764 5.89667 13.6631 6.35333 13.4364 6.76C13.2097 7.16 12.8964 7.47333 12.4964 7.7C12.1031 7.92667 11.6597 8.04 11.1664 8.04ZM11.1664 7.59C11.5664 7.59 11.9231 7.49667 12.2364 7.31C12.5564 7.12333 12.8064 6.86333 12.9864 6.53C13.1731 6.19667 13.2664 5.81667 13.2664 5.39C13.2664 4.96333 13.1731 4.58333 12.9864 4.25C12.8064 3.91667 12.5564 3.65667 12.2364 3.47C11.9231 3.28333 11.5664 3.19 11.1664 3.19C10.7664 3.19 10.4064 3.28333 10.0864 3.47C9.77307 3.65667 9.52307 3.91667 9.33641 4.25C9.15641 4.58333 9.06641 4.96333 9.06641 5.39C9.06641 5.81667 9.15641 6.19667 9.33641 6.53C9.52307 6.86333 9.77307 7.12333 10.0864 7.31C10.4064 7.49667 10.7664 7.59 11.1664 7.59ZM17.8776 2.74C18.5309 2.74 19.0476 2.93 19.4276 3.31C19.8076 3.69 19.9976 4.23667 19.9976 4.95V8H19.4976V4.99C19.4976 4.40333 19.3476 3.95667 19.0476 3.65C18.7542 3.34333 18.3409 3.19 17.8076 3.19C17.1942 3.19 16.7109 3.37333 16.3576 3.74C16.0042 4.10667 15.8276 4.6 15.8276 5.22V8H15.3276V2.78H15.8076V3.91C15.9876 3.54333 16.2542 3.25667 16.6076 3.05C16.9676 2.84333 17.3909 2.74 17.8776 2.74Z" fill="white"/>
</svg>
